Coordinates
version=1
nRows=24
nColumns=24
inDegrees=yes

Units are S.I. units (second, meters, Newtons, ...)
Angles are in degrees.

endheader
time	pelvis_tilt	pelvis_list	pelvis_rotation	pelvis_tx	pelvis_ty	pelvis_tz	hip_flexion_r	hip_adduction_r	hip_rotation_r	knee_angle_r	ankle_angle_r	subtalar_angle_r	mtp_angle_r	hip_flexion_l	hip_adduction_l	hip_rotation_l	knee_angle_l	ankle_angle_l	subtalar_angle_l	mtp_angle_l	lumbar_extension	lumbar_bending	lumbar_rotation
      0.80433333	     -1.05445140	     -6.70866445	      2.44183796	     -0.33137605	      1.00235310	      0.33102975	     10.71857698	     10.69956533	     -0.49358042	    -17.89084512	      7.64828887	    -16.10308668	      2.73463753	     13.01942871	     -8.49141202	      0.29883042	    -70.80748381	     -6.81500250	     -5.02922033	      9.43001575	    -11.20434697	     14.64763940	     -2.85463520
      0.80850000	     -0.97708976	     -6.52605680	      2.44657723	     -0.32618461	      1.00348180	      0.33135007	     10.06702419	     10.57649907	     -0.27446444	    -17.42317779	      7.61743765	    -16.27158737	      2.70346431	     13.55238709	     -8.34745838	      0.21293478	    -70.82546800	     -6.38890683	     -5.49383860	      9.28211820	    -11.32368965	     14.33752881	     -2.55781536
      0.81266667	     -0.88226338	     -6.34103008	      2.44322353	     -0.32097718	      1.00462274	      0.33167193	      9.38616873	     10.45045494	     -0.04951557	    -16.93503523	      7.57730117	    -16.43409239	      2.66818977	     14.05051072	     -8.20260808	      0.11217487	    -70.78514081	     -5.96598647	     -5.95286479	      9.11923868	    -11.46186012	     14.02615090	     -2.24608355
      0.81683333	     -0.78328639	     -6.14940830	      2.43581969	     -0.31576710	      1.00575900	      0.33198079	      8.69467093	     10.31407140	      0.17471838	    -16.43408249	      7.52563046	    -16.60374880	      2.62828723	     14.52983619	     -8.04732460	      0.00431425	    -70.68674181	     -5.54861815	     -6.40428193	      8.94152375	    -11.60490152	     13.70638635	     -1.93907177
      0.82100000	     -0.71503096	     -5.94951907	      2.42036613	     -0.31056472	      1.00681625	      0.33229143	      8.04063734	     10.16455322	      0.39077062	    -15.94313087	      7.47671166	    -16.76200880	      2.58638095	     15.03214495	     -7.87815013	     -0.10832249	    -70.54073937	     -5.12797150	     -6.84224010	      8.76003077	    -11.70913459	     13.38006689	     -1.64168614
      0.82516667	     -0.61212100	     -5.73667851	      2.40193816	     -0.30534275	      1.00791981	      0.33258107	      7.33963824	      9.99752176	      0.60148828	    -15.43516850	      7.43163646	    -16.89956404	      2.53999269	     15.47473037	     -7.69465474	     -0.23380167	    -70.32647802	     -4.70306291	     -7.25684753	      8.56179492	    -11.85060885	     13.04345890	     -1.35602724
      0.82933333	     -0.51736908	     -5.56646306	      2.37077017	     -0.30013023	      1.00895091	      0.33289661	      6.63746471	      9.87815276	      0.84145068	    -14.89603478	      7.33094838	    -17.07257231	      2.43995719	     15.92451298	     -7.56851631	     -0.37168882	    -70.08920162	     -4.21352373	     -7.61781001	      8.12879102	    -11.99654517	     12.75546607	     -0.98503481
      0.83350000	     -0.45648285	     -5.30524674	      2.35991255	     -0.29494727	      1.00993125	      0.33311787	      6.01069334	      9.63986434	      0.96878571	    -14.44981946	      7.31744456	    -17.11745031	      2.40914721	     16.39006340	     -7.30610510	     -0.47899811	    -69.77012449	     -3.79217421	     -7.99589953	      8.01010262	    -12.08242309	     12.36985385	     -0.88289063
      0.83766667	     -0.34710437	     -5.08210019	      2.33837961	     -0.28970975	      1.01094775	      0.33335974	      5.28989813	      9.44988749	      1.15792714	    -13.91401619	      7.29676974	    -17.24144038	      2.35597499	     16.78254039	     -7.09980610	     -0.60577053	    -69.39262238	     -3.40530137	     -8.36707805	      7.80244156	    -12.21910546	     12.02929703	     -0.56576443
      0.84183333	     -0.26532580	     -4.86044122	      2.31385318	     -0.28449046	      1.01188376	      0.33358650	      4.61089551	      9.25466178	      1.32299719	    -13.39845128	      7.24665676	    -17.34740298	      2.29230778	     17.19740698	     -6.89108811	     -0.73126203	    -68.97877033	     -2.95646287	     -8.66732559	      7.55818560	    -12.33154503	     11.69326096	     -0.29698860
      0.84600000	     -0.18398355	     -4.63770496	      2.29521798	     -0.27928920	      1.01277188	      0.33378253	      3.93894279	      9.05259519	      1.46113296	    -12.89157719	      7.20397985	    -17.42049591	      2.23092576	     17.60242372	     -6.67175184	     -0.84181822	    -68.51754459	     -2.50278927	     -8.93489902	      7.33171126	    -12.43946964	     11.35964439	     -0.08361560
      0.85016667	     -0.18451662	     -4.41100417	      2.27529006	     -0.27409255	      1.01350035	      0.33393361	      3.38278145	      8.83242113	      1.53406790	    -12.44184514	      7.16949529	    -17.40570264	      2.20487833	     18.08814958	     -6.43549306	     -0.94712980	    -68.01919537	     -2.00564545	     -9.16700215	      7.24632408	    -12.42819182	     11.05123979	      0.00973922
      0.85433333	     -0.04706745	     -4.18540915	      2.26624688	     -0.26890226	      1.01439796	      0.33409742	      2.63125734	      8.62666777	      1.68945413	    -11.88956455	      7.13995437	    -17.51905043	      2.13799209	     18.40163063	     -6.20413742	     -1.04104672	    -67.44537895	     -1.61489994	     -9.38737829	      7.01143979	    -12.63038654	     10.69980323	      0.31739690
      0.85850000	     -0.00073106	     -3.97397922	      2.25160329	     -0.26371394	      1.01509905	      0.33424347	      2.00448130	      8.42597752	      1.79168600	    -11.38798711	      7.08716489	    -17.59345417	      2.05717991	     18.80992328	     -5.98294738	     -1.13373207	    -66.84728731	     -1.15024954	     -9.54330944	      6.73319800	    -12.69659701	     10.37753881	      0.53945322
      0.86266667	      0.08099045	     -3.76889511	      2.22980459	     -0.25855366	      1.01580692	      0.33435442	      1.34176831	      8.22782811	      1.89739376	    -10.88527785	      7.01731147	    -17.62197273	      1.93796078	     19.16277986	     -5.76167264	     -1.22345003	    -66.20043377	     -0.65968585	     -9.69684074	      6.32672769	    -12.82063862	     10.10146480	      0.74289308
      0.86683333	      0.04376448	     -3.54734497	      2.23890524	     -0.25338557	      1.01629836	      0.33439837	      0.83840529	      7.99977016	      1.89936413	    -10.45033145	      7.01631437	    -17.59374459	      1.91045760	     19.64252670	     -5.49603688	     -1.26646910	    -65.51131334	     -0.22916910	     -9.76892895	      6.24682228	    -12.76377687	      9.78984505	      0.78801619
      0.87100000	      0.13077242	     -3.34057201	      2.24087610	     -0.24821223	      1.01692978	      0.33445422	      0.16547556	      7.79567392	      1.96703799	     -9.93685809	      7.00794492	    -17.62555232	      1.83669528	     19.96143656	     -5.25651445	     -1.31905170	    -64.75856022	      0.17792521	     -9.83661659	      6.01614872	    -12.88761433	      9.49335007	      1.00263948
      0.87516667	      0.12060461	     -3.12746600	      2.24003825	     -0.24306529	      1.01737819	      0.33446543	     -0.36274673	      7.57230026	      1.95945815	     -9.50128740	      6.95799366	    -17.58610467	      1.80236999	     20.37565518	     -4.99166815	     -1.35457273	    -63.96715551	      0.62061135	     -9.86843183	      5.92196242	    -12.87671993	      9.21711290	      1.07927884
      0.87933333	      0.21219474	     -2.94152481	      2.24308710	     -0.23790287	      1.01790883	      0.33449590	     -1.03585746	      7.38740221	      2.01300063	     -8.99122166	      6.94818490	    -17.60009613	      1.72476511	     20.66335096	     -4.76738817	     -1.39146717	    -63.12842666	      1.02409963	     -9.87105922	      5.69015978	    -13.01089874	      8.94566918	      1.28492880
      0.88350000	      0.18454460	     -2.75377568	      2.24982520	     -0.23276185	      1.01822580	      0.33445817	     -1.53834061	      7.18720173	      1.98290172	     -8.56423048	      6.90356262	    -17.55823022	      1.68700993	     21.07253663	     -4.51684594	     -1.40026242	    -62.25087588	      1.43172955	     -9.84368354	      5.58878363	    -12.97426151	      8.70605328	      1.36182076
      0.88766667	      0.26026421	     -2.57628457	      2.26282001	     -0.22759842	      1.01863051	      0.33443421	     -2.18358486	      7.00460392	      1.98298419	     -8.07406124	      6.90287378	    -17.52271150	      1.62277589	     21.35028185	     -4.28825408	     -1.41264504	    -61.32431924	      1.80869228	     -9.79705955	      5.40341625	    -13.08621677	      8.44558244	      1.51455502
      0.89183333	      0.23383668	     -2.38820934	      2.26416407	     -0.22244886	      1.01888070	      0.33437046	     -2.68463678	      6.79944290	      1.93871553	     -7.65151282	      6.85186260	    -17.45287527	      1.58813429	     21.71640745	     -4.02753624	     -1.40848598	    -60.33870527	      2.17640097	     -9.74109300	      5.31186996	    -13.05881887	      8.20612442	      1.59194990
      0.89600000	      0.29717464	     -2.23795656	      2.27790715	     -0.21728818	      1.01917161	      0.33431015	     -3.30855739	      6.64161120	      1.91733808	     -7.17247960	      6.84747905	    -17.38987937	      1.52930774	     21.97778761	     -3.81707142	     -1.39610417	    -59.32186694	      2.51987237	     -9.65719152	      5.14281276	    -13.15597905	      7.98709548	      1.74343229
      0.90016667	      0.31628312	     -2.07006820	      2.27657113	     -0.21213283	      1.01938988	      0.33423290	     -3.86889458	      6.45785906	      1.88603838	     -6.72715840	      6.80824821	    -17.28954860	      1.45760598	     22.25878049	     -3.57503365	     -1.37679186	    -58.24123970	      2.84823575	     -9.58815614	      4.93540089	    -13.20633241	      7.76280650	      1.86824226
